<svg xmlns="http://www.w3.org/2000/svg" xmlns:xlink="http://www.w3.org/1999/xlink" version="1.1" x="0px" y="0px" viewBox="0 0 612 990" style="enable-background:new 0 0 612 792;" xml:space="preserve"><style type="text/css">
	.st0{fill:none;stroke:#000000;stroke-width:8;stroke-linecap:round;stroke-linejoin:round;stroke-miterlimit:10;}
	.st1{fill:none;}
	.st2{fill:none;stroke:#000000;stroke-width:5;stroke-linecap:round;stroke-miterlimit:10;}
	.st3{fill:none;stroke:#000000;stroke-width:5;stroke-miterlimit:10;}
	.st4{stroke:#000000;stroke-width:3;stroke-linecap:round;stroke-linejoin:round;stroke-miterlimit:10;}
	.st5{fill:none;stroke:#000000;stroke-width:5;stroke-linecap:round;stroke-linejoin:round;stroke-miterlimit:10;}
</style><path class="st0" d="M140.3,293.8c8.7-29.7,19.9-62,33.7-94.6c3.7-8.7,10.7-17.8,20.1-17.7c7,0.1,12.7,5.5,17.3,10.7  c20.2,22.6,36.4,48.7,47.8,76.9"/><path class="st0" d="M338.9,269c1.5-36,11.6-71.5,29.3-102.9c4-7.1,9.5-14.8,17.7-15.4c7.8-0.7,14.4,5.5,19.5,11.4  c23.2,27.2,38.7,61,44,96.3"/><path class="st1" d="M332.2,186.6c5-2.4,10.3-4.6,15.9-4.5s11.4,3.3,13,8.6"/><path class="st1" d="M314.8,198.1"/><path class="st1" d="M289.4,199.4"/><path class="st1" d="M239.8,226.1c-2.3-6.1,0.1-13.3,4.6-18"/><path class="st0" d="M236.3,224c-0.8-8.3,4.8-19.8,12-24s8.7-5.1,17-5.7c6.7-0.5,14.4,1.9,20.7,4  c6.3,2.1,12.1,7.1,13.5,13.6c-0.6-9.5,9.8-23.2,11.8-24.9c3.8-3.3,11.8-8.2,22.2-8.8c7.2-0.3,19.8,0.9,23.5,7.1"/><path class="st0" d="M151.6,248.1c-18-5.9-37.8,2.5-48.1,18.3s-8.5,38.6,4.2,52.6c-22.2-6.9-49.2,7.2-54.6,29.8  s12.2,56.8,35.5,56.2c-18.3,5.2-37.4,4-44.1,21.8c-4.4,11.8-0.7,26,8.1,35c8.8,9.1,22.1,13.2,34.6,12c-16.8,15.6-25.3,41-17.5,62.6  s42.2,29.1,63.9,21.5c-13.5,7.5-18,37.5-12,57c4.2,13.8,25,21.4,39,18c14-3.4,29.3-9.3,31.2-23.6c-2.4,13.3,2.1,27,8.8,38.7  c10.2,17.9,27.4,33.3,47.9,35s42.6-15.2,40.8-35.8c11.9,19.3,34.2,32.9,56.8,30.8s43.1-22.4,42.1-45.1  c13.3,17.7,39.8,23.9,59.5,13.8c19.7-10.1,30.3-35.2,23.7-56.3c13.9,8.6,31.8,11.2,47.1,5.3c15.3-5.9,27.1-20.8,27.7-37.2  s-5.1-42.5-21.2-45.7c19.4-9.5,30.1-16.5,35.4-37.4s-5.7-38.2-24.9-48.1c0,0,33-0.3,33-39c0-31.2-26.2-28.7-40.5-33  c19.2-3.6,29.3-41.7,19.5-58.6s-31.7-23.9-51-21c5.1-17.7,0.4-37.8-11.8-51.5c-12.3-13.7-31.8-20.5-49.9-17.4"/><path class="st2" d="M549.5,302.5"/><path class="st3" d="M595.9,131.4"/><path class="st3" d="M577.1,110.7"/><path class="st2" d="M516.5,278"/><circle class="st4" cx="233" cy="466" r="7.2"/><circle class="st4" cx="384" cy="437" r="7.2"/><path class="st5" d="M177.3,260.4"/><path class="st0" d="M180,278.2c0.4,0-7.1,0.5-6.7,0.5c15.5,0.3,38.6-4.1,53.1-9.4c9.9-3.6,5-4.7,6.4-5.1  c1.4-0.4-6-16.3-8.9-21.5c-3.3-6.2-13.2-21.3-16.1-25.5c-2-2.8-8.8-9.5-10.8-10.3c-5.2-2.3-9.2,7.4-12.1,12.2  c-3,4.8-12.5,29-14,34.4c-1.9,7-4.6,13.1-5.7,17.5c-1.2,4.7-0.5,7.7,4.7,7.8L180,278.2z"/><path class="st0" d="M357.6,248.9c0.9-4.1,2.3-13.2,7.5-29.7c1-3.3,5.6-16.5,10.2-25.7c1.3-2.5,9.4-17.2,11.8-18.9  c3.5-2.6,22.9,29.2,24.9,33.1c3.9,7.7,7.5,14.5,12.8,28.5c0.8,2,2,6,1.4,7.3c-0.4,1-12.1,6.1-19.4,7.9c-11.9,2.9-13.7,2.8-22.4,3.1  C378.8,254.8,357.3,254.4,357.6,248.9"/><path class="st0" d="M295.1,532.2c8.6-14.5,9.2-17.6,17.8-32.1c2.4-4.1,5.3-8.2,7.4-12.8c6.6,5.8,10.1,9.3,11.2,10.5  c12.6,14,10.2,10.7,22.8,24.7"/><path class="st0" d="M186.1,499.3c-11.4,0.2-22.8,2.7-33.2,7.4"/><path class="st0" d="M199.4,527.8c-11.8,5.8-21.2,16.4-25.5,28.8"/><path class="st0" d="M433.9,446.2c13.4-7.6,29.6-10.2,44.7-6.9"/><path class="st0" d="M439.6,464.7c14.2-0.6,28.5,5.9,37.3,17"/><path class="st0" d="M466.5,208.2c-7.4-19.4,4.2-43.9,24-50.4c-11.3-9.9-15.3-27.2-9.5-41.1s20.9-23.2,35.8-22.2  c-8.8-12.5-3.8-31.9,9.2-39.8s31.5-4.3,41.6,7.2c10.2,11.4,12,29,5.8,43S554,129,539.3,133c14.8,8.5,23.3,26.6,20.5,43.5  s-14.4,29.3-31.1,32.5c8.1,27.8,10.2,52.3-14.7,67.1"/><path class="st0" d="M747.4,108.6c-9-19.9,6.3-46.4,28-48.6c-4.7-10-4-22.3,1.7-31.8s16.4-15.7,27.5-16.1c-1-9.9-1.2-20.2,2.5-29.4  s12.2-17.1,22.1-17.5c15.3-0.5,26,17.5,23.5,32.6C850.1,13,838.7,25,827.3,35.1c12.1,9.5,17.5,26.8,12.9,41.5s-18.7,26-34,27.1  c17.5,20.5,18,53.5,1.2,74.5"/><text x="0" y="807" fill="#000000" font-size="5px" font-weight="bold" font-family="'Helvetica Neue', Helvetica, Arial-Unicode, Arial, Sans-serif">Created by Erika Kim</text><text x="0" y="812" fill="#000000" font-size="5px" font-weight="bold" font-family="'Helvetica Neue', Helvetica, Arial-Unicode, Arial, Sans-serif">from the Noun Project</text></svg>