<svg xmlns="http://www.w3.org/2000/svg" xmlns:xlink="http://www.w3.org/1999/xlink" version="1.1" x="0px" y="0px" viewBox="0 0 100 125" enable-background="new 0 0 100 100" xml:space="preserve"><path d="M62.7,14l-20-5c0,0-0.1,0-0.1,0c0,0-0.1,0-0.1,0H20C12.6,9,6.5,15.1,6.5,22.5v5c0,7.1,5.5,12.9,12.5,13.4V60  c0,0.6,0.4,1,1,1h0.7l-2.3,3.9c-2.2,3.7-2.2,8.2,0,11.9c1.8,3,1.8,6.8,0,9.8L15.1,92c-0.3,0.5-0.1,1.1,0.3,1.4  c0.2,0.1,0.3,0.1,0.5,0.1c0.3,0,0.7-0.2,0.9-0.5l3.2-5.4c2.2-3.7,2.2-8.2,0-11.9c-1.8-3-1.8-6.8,0-9.8l3-4.9H30c0.6,0,1-0.4,1-1V41  h11.5c0.1,0,0.2,0,0.2,0l20-5c0.4-0.1,0.8-0.5,0.8-1V15C63.5,14.5,63.2,14.1,62.7,14z M29,59h-8V41h8V59z M41.5,39H20  c-4.1,0-7.8-2.2-9.8-5.5h7.3c0.6,0,1-0.4,1-1s-0.4-1-1-1H10c-0.3,0-0.5,0.1-0.7,0.3c-0.5-1.3-0.8-2.8-0.8-4.3V26h9c0.6,0,1-0.4,1-1  s-0.4-1-1-1h-9v-1.5c0-1.5,0.3-2.9,0.8-4.3c0.2,0.2,0.4,0.3,0.7,0.3h7.5c0.6,0,1-0.4,1-1s-0.4-1-1-1h-7.3c2-3.3,5.7-5.5,9.8-5.5  h21.5V39z M61.5,34.2l-18,4.5V11.3l18,4.5V34.2z"/><path d="M73.8,18.6l-3.3-2c-0.5-0.3-1.1-0.1-1.4,0.3c-0.3,0.5-0.1,1.1,0.3,1.4l3.3,2c2.4,1.4,5.3,1.4,7.7,0c1.7-1,3.9-1,5.6,0l3.3,2  c0.2,0.1,0.3,0.1,0.5,0.1c0.3,0,0.7-0.2,0.9-0.5c0.3-0.5,0.1-1.1-0.3-1.4l-3.3-2c-2.4-1.4-5.3-1.4-7.7,0  C77.7,19.7,75.6,19.7,73.8,18.6z"/><path d="M90.5,28.1l-3.3-2c-2.4-1.4-5.3-1.4-7.7,0c-1.7,1-3.9,1-5.6,0l-3.3-2c-0.5-0.3-1.1-0.1-1.4,0.3c-0.3,0.5-0.1,1.1,0.3,1.4  l3.3,2c2.4,1.4,5.3,1.4,7.7,0c1.7-1,3.9-1,5.6,0l3.3,2C89.6,30,89.8,30,90,30c0.3,0,0.7-0.2,0.9-0.5C91.1,29,91,28.4,90.5,28.1z"/><path d="M90.5,35.6l-3.3-2c-2.4-1.4-5.3-1.4-7.7,0c-1.7,1-3.9,1-5.6,0l-3.3-2c-0.5-0.3-1.1-0.1-1.4,0.3c-0.3,0.5-0.1,1.1,0.3,1.4  l3.3,2c2.4,1.4,5.3,1.4,7.7,0c1.7-1,3.9-1,5.6,0l3.3,2c0.2,0.1,0.3,0.1,0.5,0.1c0.3,0,0.7-0.2,0.9-0.5C91.1,36.5,91,35.9,90.5,35.6z  "/><text x="0" y="115" fill="#000000" font-size="5px" font-weight="bold" font-family="'Helvetica Neue', Helvetica, Arial-Unicode, Arial, Sans-serif">Created by Arthur Shlain</text><text x="0" y="120" fill="#000000" font-size="5px" font-weight="bold" font-family="'Helvetica Neue', Helvetica, Arial-Unicode, Arial, Sans-serif">from the Noun Project</text></svg>